<svg xmlns="http://www.w3.org/2000/svg" viewBox="0 0 89.55 89.55"><defs><style>.cls-1{fill:none;stroke:#000;stroke-miterlimit:10;stroke-width:3px;}.cls-2{fill-rule:evenodd;}</style></defs><g id="Capa_2" data-name="Capa 2"><g id="iconos"><circle class="cls-1" cx="44.78" cy="44.78" r="43.28"/><path class="cls-2" d="M50.38,31c1.47-.05,2.94,0,4.41,0h.61V23.3c-.79-.08-1.61-.19-2.43-.23-1.5-.07-3-.15-4.52-.11a11.11,11.11,0,0,0-6.38,2,9.52,9.52,0,0,0-3.83,6.38A22.31,22.31,0,0,0,38,34.58c0,1.72,0,3.43,0,5.14v.65H30.66v8.52h7.26V70.33H46.8V48.93H54c.37-2.84.73-5.65,1.11-8.57H46.74s0-4.23.07-6.06C46.88,31.79,48.37,31,50.38,31Z"/></g></g></svg>