<svg xmlns="http://www.w3.org/2000/svg" viewBox="0 0 54.82 58.79"><g id="Capa_2" data-name="Capa 2"><g id="iconos"><path d="M0,38.43q.11-8.59.2-17.17l4.19,4.29C17.67,13.4,33.33,26,33.33,26c-13.59-.53-19.14,9.54-19.14,9.54l3,3Z"/><path d="M46.1,0H28.67A8.74,8.74,0,0,0,20,8.72v6l4.51,4.52V9a5.61,5.61,0,0,1,5.6-5.59H44.71A5.59,5.59,0,0,1,49.43,6L34.91,12.55v31.9H30.06a5.62,5.62,0,0,1-5.6-5.6V30.92L20,35.44v3.69a8.74,8.74,0,0,0,8.72,8.72h6.24V58.79L47.57,47.71a8.74,8.74,0,0,0,7.25-8.58V8.72A8.75,8.75,0,0,0,46.1,0Z"/></g></g></svg>