<svg xmlns="http://www.w3.org/2000/svg" viewBox="0 0 61.67 57.82"><g id="Capa_2" data-name="Capa 2"><g id="iconos"><path d="M61.67,36.29c0-5.71-4.46-10.73-11.23-13.67-2.13,7.65-12.37,13.45-24.69,13.45a36.3,36.3,0,0,1-11-1.66,20.27,20.27,0,0,1-3.25,2.65c.62,8.71,11.61,15.64,25.07,15.64a36.3,36.3,0,0,0,11-1.66c3.29,3.44,10.62,6.78,10.62,6.78-2.32-3.16-3.1-7.85-3.35-10.28C59.07,44.61,61.67,40.65,61.67,36.29Z"/><path d="M25.1,0C11.24,0,0,7.35,0,16.41c0,4.35,2.6,8.31,6.83,11.25-.25,2.42-1,7.11-3.35,10.28,0,0,7.33-3.35,10.62-6.78a36.3,36.3,0,0,0,11,1.65c13.86,0,25.09-7.34,25.09-16.4S39,0,25.1,0Z"/></g></g></svg>