<svg xmlns="http://www.w3.org/2000/svg" viewBox="0 0 126.64 126.66"><defs><style>.cls-1{fill:#fd3374;}.cls-1,.cls-2{fill-rule:evenodd;}.cls-2{fill:#fdfdfd;}</style></defs><g id="Capa_2" data-name="Capa 2"><g id="iconos"><path class="cls-1" d="M63.31,0A63.33,63.33,0,1,1,0,63.33,63.33,63.33,0,0,1,63.31,0Z"/><path class="cls-2" d="M66.48,23.41c-21.15,0-31.82,14.67-31.82,26.9a24.61,24.61,0,0,0,.83,6.47c1.26,4.58,4,8.29,8.29,10A1.53,1.53,0,0,0,46,65.71c.21-.76.69-2.68.92-3.47a2,2,0,0,0-.64-2.39,11.51,11.51,0,0,1-2.43-4.47,14.54,14.54,0,0,1-.52-4c0-10.89,8.43-20.65,21.93-20.65,11.94,0,18.53,7.07,18.53,16.51a38.57,38.57,0,0,1-.83,8c-1.86,8.63-6.74,14.94-13.29,14.94-4.65,0-8.15-3.72-7-8.29.64-2.6,1.57-5.31,2.34-7.84a27.31,27.31,0,0,0,1.59-7.45c0-3.53-1.95-6.46-6-6.46-4.77,0-8.6,4.75-8.6,11.13a18,18,0,0,0,.31,3.23,13.88,13.88,0,0,0,1.12,3.6s-4.88,20-5.72,23.47c-1.71,7-.26,15.52-.14,16.38a.6.6,0,0,0,1.07.24c.43-.55,6.1-7.33,8-14.08.55-1.93,3.12-11.86,3.12-11.86,1.55,2.86,6.08,5.38,10.88,5.38,11.67,0,20.27-8.38,23.06-20.62a39.83,39.83,0,0,0,1-8.91c0-12.79-11.18-24.68-28.18-24.68Z"/></g></g></svg>