<svg xmlns="http://www.w3.org/2000/svg" viewBox="0 0 89.55 89.55"><defs><style>.cls-1{fill:none;stroke:#000;stroke-miterlimit:10;stroke-width:3px;}.cls-2{fill-rule:evenodd;}</style></defs><g id="Capa_2" data-name="Capa 2"><g id="iconos"><circle class="cls-1" cx="44.78" cy="44.78" r="43.28"/><path class="cls-2" d="M35,56.2a10.25,10.25,0,0,1-9.5-7.09A10.11,10.11,0,0,0,29.89,49l.14-.06a10.17,10.17,0,0,1-6.62-4.69,9.77,9.77,0,0,1-1.5-5.42A10.08,10.08,0,0,0,26.45,40a10.2,10.2,0,0,1-4.2-6.19,10.06,10.06,0,0,1,1.1-7.39,29.18,29.18,0,0,0,21,10.67c-.06-.41-.12-.76-.16-1.12a10.2,10.2,0,0,1,17.34-8.44.51.51,0,0,0,.54.16,20.42,20.42,0,0,0,5.94-2.28l.13-.07h.07a10.46,10.46,0,0,1-4.37,5.56,19.66,19.66,0,0,0,5.69-1.53l0,0c-.4.52-.77,1-1.18,1.53a19.7,19.7,0,0,1-3.71,3.53.34.34,0,0,0-.16.32,28.58,28.58,0,0,1-.2,4.53,30,30,0,0,1-2.62,9.09,29.36,29.36,0,0,1-5.52,8,27.24,27.24,0,0,1-14,7.81,31,31,0,0,1-5.69.68,28.82,28.82,0,0,1-16.32-4.38L20,60.43A20.58,20.58,0,0,0,30.15,59,20.31,20.31,0,0,0,35,56.2Z"/></g></g></svg>