<svg xmlns="http://www.w3.org/2000/svg" viewBox="0 0 89.55 89.55"><defs><style>.cls-1{fill:none;stroke:#000;stroke-miterlimit:10;stroke-width:3px;}</style></defs><g id="Capa_2" data-name="Capa 2"><g id="iconos"><circle class="cls-1" cx="44.78" cy="44.78" r="43.28"/><path d="M62.86,47.55a18.49,18.49,0,0,0,4.44-7.73A41.23,41.23,0,0,0,68.72,28H55.32a21,21,0,0,1-1.75,9.35,6.27,6.27,0,0,1-5.13,3.78V28H35.29V58.66a16.7,16.7,0,0,1-4.88-5.17c-.22-.37-.39-.68-.49-.88a27.06,27.06,0,0,1-2.42-9A44.4,44.4,0,0,1,28.18,28l-16.6-.38c1.13,18,8.32,32.79,18.7,37.65a21.69,21.69,0,0,0,3.55,1.24,33.34,33.34,0,0,0,14.61.77h0V52.93q6.41.28,6.92,14.34h14.2Q68.95,53.68,62.86,47.55Z"/></g></g></svg>